<svg width="158" height="118" viewBox="0 0 158 118" fill="none" xmlns="http://www.w3.org/2000/svg"><path d="M0 46.7796V16.3396H30.5383V46.7796H0ZM0 102.205V71.7652H30.5383V102.205H0Z" fill="currentColor" stroke="currentColor" stroke-width="0" vector-effect="non-scaling-stroke" paint-order="fill"></path><path d="M49.6021 117.635V0.162109H96.302C109.758 0.162109 121.02 2.78315 130.086 8.02522C139.153 13.2673 145.99 20.3221 150.616 29.2058C155.234 38.0896 157.547 47.9287 157.547 58.7394C157.547 70.6525 155.006 81.0223 149.933 89.8408C144.859 98.6674 137.726 105.502 128.55 110.36C119.365 115.218 108.619 117.643 96.302 117.643H49.6021V117.635ZM123.67 58.7313C123.67 52.6645 122.581 47.3408 120.42 42.7683C118.251 38.1957 115.119 34.6357 111.016 32.0963C106.913 29.5569 102.009 28.2913 96.302 28.2913H82.964V89.506H96.302C102.118 89.506 107.048 88.1832 111.1 85.5377C115.144 82.8922 118.259 79.226 120.42 74.5391C122.581 69.8523 123.67 64.5857 123.67 58.7394V58.7313Z" fill="currentColor" stroke="currentColor" stroke-width="0" vector-effect="non-scaling-stroke" paint-order="fill"></path></svg>